<?xml version="1.0" encoding="UTF-8" standalone="no"?>
<!DOCTYPE svg PUBLIC "-//W3C//DTD SVG 1.1//EN" "http://www.w3.org/Graphics/SVG/1.1/DTD/svg11.dtd">
<svg xmlns="http://www.w3.org/2000/svg" version="1.1" viewBox="0.00 0.00 1014.00 1014.00">
<path fill="#3773d5" d="
  M 219.29 794.75
  L 219.13 795.21
  A 0.92 0.75 -20.9 0 1 218.97 795.49
  Q 212.48 802.66 209.35 806.58
  C 202.79 814.76 196.34 821.87 190.04 829.54
  C 186.89 833.38 182.70 837.67 179.93 840.43
  Q 172.21 848.11 162.04 848.76
  C 152.25 849.39 145.10 845.77 139.29 838.17
  C 131.70 828.24 133.37 814.23 141.59 805.39
  C 144.84 801.90 149.10 797.86 153.30 794.73
  Q 170.26 782.07 186.99 768.97
  Q 196.01 761.90 203.97 754.97
  C 206.15 753.08 206.90 751.26 206.92 748.10
  C 206.97 742.51 207.71 736.81 210.63 732.02
  Q 213.22 727.78 213.86 726.82
  Q 215.02 725.06 213.91 723.42
  C 200.90 704.33 191.93 690.60 181.83 671.97
  Q 175.26 659.85 169.47 645.30
  Q 159.82 621.05 152.73 596.75
  Q 151.58 592.80 151.00 589.75
  C 147.43 570.94 144.78 557.79 143.27 541.53
  A 1.74 1.74 0.0 0 0 141.84 539.99
  C 133.30 538.47 127.35 533.61 120.78 527.95
  Q 118.82 526.26 116.01 526.17
  Q 106.12 525.86 91.67 527.93
  C 77.86 529.90 67.08 530.99 50.26 532.84
  C 35.72 534.43 20.28 531.49 13.75 517.15
  Q 11.19 511.54 11.53 505.82
  C 11.89 499.77 13.52 493.14 18.39 488.87
  C 27.26 481.09 36.70 480.02 48.02 480.92
  Q 51.66 481.21 66.75 482.71
  C 80.08 484.03 93.37 486.70 106.28 487.01
  Q 110.37 487.10 117.86 487.55
  A 3.36 3.35 20.8 0 0 120.68 486.29
  Q 128.71 476.18 142.13 474.12
  A 1.55 1.54 88.8 0 0 143.43 472.76
  Q 145.70 452.41 149.53 433.01
  Q 152.14 419.78 157.86 400.62
  Q 164.32 379.00 173.33 359.78
  Q 175.61 354.90 178.13 349.56
  Q 187.26 330.17 201.83 308.32
  Q 206.97 300.60 209.33 296.47
  A 0.88 0.88 0.0 0 0 209.15 295.37
  C 202.02 288.94 201.96 282.22 201.34 272.97
  Q 201.17 270.31 198.49 267.57
  Q 191.72 260.63 186.52 256.83
  Q 182.34 253.77 178.19 250.47
  Q 163.16 238.51 143.41 223.84
  Q 139.71 221.10 136.14 216.69
  C 127.09 205.48 128.26 188.38 140.20 179.48
  C 151.45 171.09 168.02 173.65 177.29 184.16
  C 182.63 190.21 187.53 195.36 192.61 201.75
  Q 207.60 220.62 224.73 237.94
  C 229.28 242.54 235.68 240.75 241.27 242.60
  Q 246.30 244.25 250.87 246.93
  A 2.55 2.53 39.0 0 0 253.87 246.62
  Q 274.03 228.21 294.85 212.35
  Q 299.61 208.73 311.59 201.08
  Q 322.50 194.11 334.69 188.04
  C 337.15 186.81 339.58 185.05 341.39 184.15
  Q 370.50 169.55 392.63 162.91
  Q 421.58 154.24 440.03 150.60
  Q 447.18 149.20 467.14 146.79
  C 469.57 146.50 472.12 146.83 474.64 146.20
  A 1.19 1.18 85.7 0 0 475.54 145.14
  Q 476.56 133.02 485.09 123.39
  Q 486.61 121.67 486.95 117.75
  C 487.86 106.94 485.50 91.72 484.91 85.33
  C 483.95 74.82 481.71 60.07 480.88 47.97
  Q 480.10 36.60 486.51 27.28
  C 496.32 13.03 518.07 13.45 527.47 27.99
  Q 532.24 35.36 532.36 43.98
  C 532.43 48.82 532.26 54.34 531.79 58.66
  Q 529.25 82.50 526.46 106.00
  Q 525.70 112.44 526.14 117.54
  C 526.32 119.62 527.32 121.60 528.89 123.43
  Q 536.86 132.73 538.32 144.72
  A 1.38 1.37 -0.8 0 0 539.55 145.91
  Q 559.75 147.83 579.58 151.72
  C 590.05 153.78 599.55 156.67 613.49 160.54
  Q 620.50 162.49 623.58 163.67
  C 627.95 165.36 632.88 166.48 636.85 168.15
  C 650.48 173.91 662.99 179.00 676.30 186.45
  Q 681.62 189.42 684.75 190.91
  C 688.61 192.75 691.99 195.49 695.88 197.48
  Q 706.30 202.83 719.70 213.14
  C 736.38 225.98 748.09 235.15 760.70 247.28
  A 1.21 1.21 0.0 0 0 762.15 247.46
  C 767.90 244.17 772.20 241.89 779.02 241.96
  Q 785.76 242.03 790.14 237.38
  Q 800.93 225.93 816.17 207.92
  Q 830.26 191.28 836.76 184.23
  Q 846.93 173.20 862.13 174.50
  A 4.48 4.20 55.6 0 1 863.17 174.73
  C 865.89 175.75 870.06 176.84 872.76 178.84
  Q 878.22 182.87 880.48 188.10
  C 887.09 203.41 880.94 216.93 868.04 226.04
  Q 861.99 230.31 840.51 246.77
  Q 828.76 255.77 827.40 256.76
  C 822.27 260.49 817.95 264.46 814.22 269.29
  A 6.88 6.82 -23.6 0 0 812.83 272.80
  C 812.27 278.61 812.36 282.15 810.45 286.32
  Q 808.06 291.52 805.35 294.98
  A 1.31 1.29 -28.7 0 0 805.08 295.88
  Q 805.19 297.47 806.25 299.00
  C 818.64 316.93 829.36 336.45 839.29 356.92
  Q 848.43 375.78 854.31 395.91
  Q 854.91 397.96 860.59 416.88
  Q 861.17 418.81 863.49 428.94
  Q 864.91 435.14 865.84 441.12
  Q 868.47 457.98 870.18 473.04
  A 1.54 1.53 -1.1 0 0 871.60 474.40
  C 880.97 475.00 887.49 479.89 894.13 486.00
  A 3.31 3.27 67.3 0 0 896.22 486.87
  Q 896.26 486.88 911.77 486.91
  Q 918.22 486.93 927.23 485.54
  Q 935.62 484.25 958.00 481.95
  C 972.34 480.48 989.17 479.39 998.00 493.40
  C 1003.82 502.64 1003.05 513.54 996.83 522.63
  C 988.89 534.25 970.70 534.00 958.38 532.57
  Q 945.74 531.11 933.07 529.83
  C 926.30 529.14 919.00 527.72 911.53 527.13
  A 2.00 1.87 58.9 0 1 910.82 526.93
  Q 910.43 526.74 910.12 526.71
  Q 907.34 526.44 903.01 526.38
  C 898.05 526.32 895.12 526.93 891.35 529.95
  C 884.89 535.14 879.21 539.31 870.70 540.09
  A 0.95 0.95 0.0 0 0 869.83 541.04
  Q 869.82 546.27 869.14 550.78
  Q 865.21 577.13 862.28 589.28
  Q 860.44 596.91 858.69 604.99
  Q 858.64 605.21 858.47 605.39
  A 1.02 0.09 -44.7 0 0 857.93 606.03
  C 857.17 608.72 856.12 611.04 855.40 613.54
  Q 849.75 633.12 842.76 648.78
  Q 838.70 657.85 832.07 671.68
  C 828.56 679.02 823.68 686.93 820.36 692.95
  Q 817.54 698.09 812.89 704.48
  C 807.71 711.62 804.19 717.89 798.56 723.76
  A 2.53 2.52 -41.8 0 0 798.37 727.01
  Q 802.86 733.00 805.04 738.96
  C 806.28 742.38 806.46 745.82 806.94 750.07
  A 3.19 3.19 0.0 0 0 807.33 751.29
  Q 808.79 753.93 811.26 756.03
  C 819.69 763.22 823.90 767.06 831.05 772.19
  Q 842.65 780.52 858.72 793.33
  Q 863.97 797.51 867.24 800.60
  Q 873.14 806.17 874.98 808.70
  C 881.68 817.95 881.14 831.43 873.09 840.08
  Q 863.75 850.10 850.28 848.49
  Q 842.02 847.50 835.87 842.09
  Q 828.25 835.39 822.58 828.66
  C 816.91 821.93 811.96 815.41 805.69 808.23
  Q 792.48 793.09 785.50 785.02
  C 780.43 779.15 775.35 780.51 768.51 779.50
  C 763.48 778.75 759.27 775.83 755.25 772.53
  A 1.33 1.32 -49.3 0 0 753.42 772.67
  Q 750.70 775.69 747.14 778.64
  Q 734.06 789.45 721.94 799.43
  C 717.93 802.73 710.97 806.73 705.72 810.60
  Q 702.60 812.90 699.96 814.47
  C 689.01 820.97 678.90 827.18 667.35 832.58
  Q 644.27 843.38 630.74 848.46
  Q 586.75 864.99 538.99 869.83
  A 1.92 1.90 1.3 0 0 537.29 871.44
  C 535.91 880.64 533.31 888.16 526.88 895.31
  Q 525.55 896.79 525.67 900.89
  Q 525.81 905.33 527.20 919.80
  C 528.57 934.15 530.86 949.10 531.98 961.00
  C 533.10 972.86 532.51 989.35 521.22 995.90
  C 514.53 999.77 507.58 1002.11 499.76 999.71
  C 481.47 994.08 479.35 976.19 481.44 960.00
  Q 485.14 931.38 488.22 901.75
  Q 488.59 898.16 487.58 895.85
  A 3.18 3.12 -76.9 0 0 487.11 895.08
  C 480.56 887.17 476.60 880.38 476.35 870.30
  A 0.62 0.62 0.0 0 0 475.79 869.69
  Q 449.44 867.24 421.98 860.70
  Q 414.91 859.01 404.77 855.81
  Q 392.44 851.91 387.75 850.25
  Q 332.03 830.51 285.39 794.09
  Q 281.90 791.37 264.35 776.47
  Q 261.94 774.42 260.40 774.01
  C 256.80 773.05 252.71 775.48 250.56 776.75
  C 246.36 779.23 240.91 779.80 236.29 779.66
  C 232.44 779.55 230.74 782.11 228.26 784.71
  Q 224.02 789.16 219.71 794.04
  A 2.12 2.05 76.7 0 0 219.29 794.75
  Z
  M 553.35 212.72
  Q 532.66 210.03 526.25 209.64
  Q 480.61 206.84 436.45 217.15
  Q 430.98 218.42 407.95 225.81
  C 403.67 227.18 399.77 229.24 395.92 230.67
  C 388.94 233.25 380.83 237.10 375.79 239.55
  Q 343.12 255.38 315.30 278.45
  C 309.86 282.96 304.90 287.87 299.38 292.97
  C 276.05 314.54 256.45 341.18 241.36 369.45
  Q 238.56 374.69 237.30 377.59
  C 234.25 384.57 230.77 390.45 227.87 398.21
  Q 220.85 417.00 216.59 434.77
  Q 214.52 443.43 214.03 445.35
  Q 212.34 451.93 211.65 455.97
  Q 207.24 481.91 207.56 507.00
  Q 207.80 524.78 208.21 530.68
  Q 208.74 538.27 211.58 558.01
  Q 212.34 563.29 212.97 565.53
  C 214.83 572.18 215.68 577.58 217.57 584.02
  Q 224.39 607.30 229.23 618.36
  Q 239.40 641.62 245.79 652.55
  Q 254.34 667.19 262.20 677.82
  Q 274.24 694.11 287.07 708.16
  C 290.25 711.64 294.17 715.84 298.68 719.87
  Q 311.68 731.51 314.95 734.31
  Q 330.85 747.94 351.09 760.64
  C 356.62 764.11 360.83 766.12 365.67 769.07
  Q 369.91 771.67 376.85 774.83
  Q 394.08 782.68 406.40 787.30
  Q 419.41 792.18 436.06 796.54
  Q 451.03 800.47 466.54 802.44
  C 502.18 806.97 539.54 805.63 575.01 797.36
  Q 599.01 791.76 623.69 780.76
  Q 657.04 765.89 685.92 744.73
  C 689.85 741.85 693.24 738.85 697.33 735.91
  Q 700.40 733.70 705.59 728.97
  C 713.04 722.18 718.98 717.20 723.45 711.76
  C 726.21 708.39 729.66 705.47 732.43 702.10
  C 742.63 689.66 749.55 680.03 759.09 666.34
  Q 763.97 659.35 768.57 651.04
  Q 774.53 640.27 777.16 635.19
  Q 782.15 625.54 787.85 609.66
  Q 792.21 597.51 794.98 588.29
  Q 802.16 564.38 804.91 534.76
  Q 807.09 511.20 805.95 492.01
  Q 804.69 470.69 800.53 448.70
  Q 797.58 433.10 793.67 421.79
  C 789.89 410.90 785.79 398.77 780.90 387.64
  Q 774.98 374.18 774.41 373.08
  Q 759.93 344.88 740.03 320.49
  Q 727.98 305.71 719.63 297.57
  Q 706.51 284.78 688.44 270.51
  Q 683.09 266.29 664.66 254.07
  Q 655.20 247.80 643.89 242.32
  Q 630.36 235.78 622.17 232.37
  Q 615.98 229.78 607.25 226.57
  Q 598.57 223.37 581.48 218.52
  Q 567.53 214.56 553.35 212.72
  Z"
/>
<path fill="#3773d5" d="
  M 362.97 503.55
  Q 365.67 502.81 369.15 502.67
  A 10.35 9.20 -48.4 0 0 370.67 502.49
  Q 372.86 502.04 380.09 500.31
  Q 386.65 498.74 405.09 492.61
  Q 421.22 487.23 430.22 485.44
  Q 449.07 481.69 465.25 481.51
  Q 491.36 481.22 515.61 490.60
  Q 521.26 492.79 526.54 493.41
  Q 538.71 494.85 541.06 483.07
  Q 543.10 472.90 540.67 464.26
  Q 539.28 459.31 535.97 453.03
  Q 526.70 435.39 521.83 425.93
  C 508.80 400.63 506.84 371.92 517.34 345.30
  C 525.74 324.01 543.08 307.47 563.63 297.34
  Q 569.96 294.23 573.19 293.43
  Q 588.24 289.71 602.75 289.64
  C 609.97 289.60 617.56 291.16 624.66 292.63
  C 633.07 294.37 640.54 298.36 648.38 302.89
  Q 655.49 306.99 664.21 316.92
  Q 675.00 329.19 681.21 348.11
  C 684.75 358.90 692.62 366.23 702.63 374.47
  Q 708.49 379.30 715.16 382.67
  Q 725.84 388.09 731.69 389.82
  Q 737.51 391.55 760.77 398.22
  C 768.42 400.42 774.50 406.08 773.70 414.57
  C 773.01 421.90 765.07 427.66 758.59 430.57
  C 742.04 438.00 723.33 439.43 705.24 438.07
  Q 692.78 437.13 671.53 435.00
  Q 655.85 433.43 643.59 443.31
  Q 634.14 450.94 634.85 463.13
  Q 635.47 473.78 641.29 482.97
  C 645.23 489.18 649.97 494.90 653.88 500.98
  Q 664.91 518.16 669.47 526.34
  Q 676.75 539.41 682.51 555.00
  Q 696.97 594.20 689.09 635.66
  Q 687.60 643.50 684.24 652.02
  Q 678.33 667.01 669.70 680.69
  Q 665.59 687.21 659.15 694.30
  Q 652.70 701.42 646.82 706.30
  Q 645.83 707.12 639.42 712.41
  C 631.02 719.32 621.81 724.95 611.94 730.09
  Q 606.58 732.89 602.69 734.38
  C 598.09 736.15 594.39 737.87 590.00 739.34
  Q 577.17 743.63 562.13 747.40
  C 556.44 748.83 550.53 749.47 544.93 750.37
  Q 525.91 753.41 510.44 753.66
  C 496.97 753.87 482.90 753.97 469.75 752.47
  Q 459.02 751.24 445.75 749.01
  Q 440.99 748.21 435.92 746.81
  C 422.74 743.17 408.41 739.24 395.46 733.33
  Q 366.10 719.96 342.39 701.36
  Q 335.53 695.99 325.73 686.67
  Q 323.11 684.17 315.04 675.34
  Q 309.52 669.32 305.09 663.26
  Q 296.79 651.92 294.57 648.70
  Q 280.87 628.87 272.21 605.57
  C 269.60 598.53 268.30 590.02 266.62 584.12
  A 0.56 0.55 18.8 0 1 267.60 583.64
  Q 269.83 586.65 272.38 588.28
  C 278.24 592.04 283.13 595.19 289.32 595.63
  A 0.59 0.59 0.0 0 0 289.81 594.65
  C 281.89 585.55 275.06 576.83 270.11 565.33
  Q 264.77 552.91 262.76 544.82
  Q 254.06 509.71 264.38 472.53
  C 265.96 466.83 268.86 461.65 270.23 456.45
  A 0.48 0.47 34.9 0 1 271.08 456.30
  Q 274.83 461.71 280.86 469.38
  Q 286.63 476.73 296.27 484.43
  Q 314.19 498.73 337.75 502.48
  Q 348.85 504.24 362.58 503.62
  A 1.57 1.54 34.3 0 0 362.97 503.55
  Z
  M 641.31 356.79
  A 0.42 0.42 0.0 0 0 641.99 356.53
  Q 642.99 350.41 639.25 346.04
  C 631.94 337.49 619.64 337.88 613.28 347.27
  Q 611.63 349.71 611.20 352.50
  Q 608.74 368.66 623.95 373.60
  Q 625.29 374.04 626.54 373.94
  A 0.37 0.37 0.0 0 0 626.82 373.37
  Q 622.00 366.03 624.39 357.93
  A 3.86 3.84 -15.7 0 1 625.23 356.44
  Q 627.98 353.37 628.74 352.94
  C 634.02 349.94 637.58 353.82 641.31 356.79
  Z
  M 651.81 412.28
  A 0.70 0.69 -57.7 0 0 652.05 413.38
  C 656.69 415.34 660.56 416.76 665.94 417.89
  Q 685.71 422.04 705.73 424.82
  Q 719.03 426.67 733.40 424.38
  Q 742.48 422.93 742.97 422.81
  C 748.52 421.52 756.24 419.13 760.49 415.54
  A 2.39 2.30 -8.9 0 0 761.13 414.70
  C 763.24 410.14 759.04 408.59 755.54 407.17
  Q 752.47 405.93 750.91 405.49
  C 732.35 400.35 716.84 395.97 701.79 386.55
  Q 698.15 384.27 691.27 378.83
  Q 681.86 371.37 681.02 370.89
  C 678.28 369.29 673.81 367.91 673.11 371.88
  Q 672.03 377.92 670.55 384.79
  Q 666.96 401.41 653.25 410.72
  A 1.40 1.34 1.2 0 0 653.00 410.95
  L 651.81 412.28
  Z
  M 341.65 540.65
  A 0.67 0.67 0.0 0 0 340.60 541.14
  Q 336.83 584.38 356.55 622.24
  Q 358.97 626.90 364.77 634.73
  Q 377.13 651.43 394.32 665.20
  C 412.35 679.64 434.59 688.03 457.30 691.61
  Q 479.78 695.16 500.18 692.84
  Q 512.18 691.48 527.04 686.39
  Q 535.51 683.49 543.79 677.83
  C 555.25 670.00 563.22 661.71 569.71 650.40
  C 575.93 639.55 578.72 629.25 578.70 617.18
  C 578.68 609.40 578.39 603.93 576.32 596.70
  Q 570.57 576.68 557.96 563.36
  C 552.81 557.92 546.34 554.09 539.44 550.33
  C 518.17 538.73 493.23 540.29 470.27 546.83
  Q 456.06 550.88 440.57 555.87
  C 431.78 558.70 423.84 560.28 415.76 561.76
  C 399.62 564.73 384.48 562.33 369.81 556.14
  Q 355.26 550.00 341.65 540.65
  Z"
/>
<path fill="#3773d5" d="
  M 698.87 392.71
  A 1.85 1.85 0.0 0 1 699.52 395.24
  L 699.14 395.87
  A 5.65 5.26 30.7 0 1 691.60 397.51
  L 688.92 395.91
  A 5.65 5.26 30.7 0 1 686.74 388.51
  L 687.12 387.88
  A 1.85 1.85 0.0 0 1 689.65 387.23
  L 698.87 392.71
  Z"
/>
<path fill="#3773d5" d="
  M 434.38 622.23
  Q 432.73 621.63 431.50 621.57
  Q 402.77 620.28 380.41 605.04
  Q 370.90 598.56 362.75 587.48
  Q 354.75 576.60 352.83 562.99
  A 0.42 0.42 0.0 0 1 353.37 562.52
  C 354.63 562.90 355.88 564.31 357.30 565.12
  Q 365.48 569.85 370.71 572.00
  Q 376.70 574.46 385.28 576.13
  Q 411.48 581.25 438.13 573.88
  Q 448.85 570.91 467.95 564.48
  Q 475.08 562.08 486.69 559.68
  C 511.39 554.57 534.78 561.88 550.16 581.98
  C 562.41 598.00 564.12 621.08 555.68 638.96
  Q 551.00 648.88 540.97 658.23
  Q 526.64 671.58 507.09 675.81
  C 490.25 679.45 474.00 679.15 456.42 676.34
  Q 439.91 673.70 424.07 665.85
  Q 404.72 656.27 390.00 642.36
  C 384.43 637.11 380.56 630.25 376.65 623.91
  A 0.52 0.52 0.0 0 1 377.26 623.15
  Q 403.74 632.44 430.63 624.62
  Q 433.16 623.88 434.48 622.86
  A 0.37 0.36 36.2 0 0 434.38 622.23
  Z"
/>
</svg>
